<?xml version="1.0" encoding="utf-8"?>
<!-- Generator: Adobe Illustrator 26.0.1, SVG Export Plug-In . SVG Version: 6.00 Build 0)  -->
<svg version="1.1" id="Layer_1" xmlns="http://www.w3.org/2000/svg" xmlns:xlink="http://www.w3.org/1999/xlink"
	viewBox="0 0 68 69" xml:space="preserve">
	<style type="text/css">
		.st0 {
			fill: #EBFDFD;
		}

		.st1 {
			fill: url(#SVGID_1_);
		}

		.st2 {
			fill: url(#SVGID_00000045602359333112093400000013490815208221982861_);
		}

		.st3 {
			fill: url(#SVGID_00000130624240233137466990000004608444155876796291_);
		}
	</style>
	<path class="st0" d="M7,0h53.4c3.9,0,7,3.1,7,7v55c0,3.9-3.1,7-7,7H7c-3.9,0-7-3.1-7-7V7C0,3.1,3.1,0,7,0z" />
	<linearGradient id="SVGID_1_" gradientUnits="userSpaceOnUse" x1="39.9509" y1="4.0086" x2="12.4321" y2="35.1213"
		gradientTransform="matrix(1 0 0 -1 0 70)">
		<stop offset="0" style="stop-color:#002EA4" />
		<stop offset="0.3175" style="stop-color:#0358E8" />
		<stop offset="0.9541" style="stop-color:#0DBDB3" />
	</linearGradient>
	<path class="st1" d="M29.5,33.3L12.9,15.6c-1-1.1-2.9-0.4-2.9,1.2v35.5c0,1.5,1.8,2.3,2.9,1.2l16.6-17.8C30.1,35,30.1,34,29.5,33.3z
	" />
	<linearGradient id="SVGID_00000031911372027573856550000006153920124928393147_" gradientUnits="userSpaceOnUse"
		x1="57.6032" y1="19.6218" x2="30.0844" y2="50.7345" gradientTransform="matrix(1 0 0 -1 0 70)">
		<stop offset="0" style="stop-color:#002EA4" />
		<stop offset="0.3175" style="stop-color:#0358E8" />
		<stop offset="0.9541" style="stop-color:#0DBDB3" />
	</linearGradient>
	<path style="fill:url(#SVGID_00000031911372027573856550000006153920124928393147_);" d="M25.7,46.4l28.8-30.9
	c1-1.1,2.9-0.4,2.9,1.2v18.7c0,0.7-0.4,1.3-1.1,1.6L27.2,48.7C25.8,49.2,24.7,47.5,25.7,46.4z" />
	<linearGradient id="SVGID_00000054950415410305922100000005551721194883872186_" gradientUnits="userSpaceOnUse"
		x1="57.5448" y1="19.5701" x2="30.026" y2="50.6828" gradientTransform="matrix(1 0 0 -1 0 70)">
		<stop offset="0" style="stop-color:#002EA4" />
		<stop offset="0.3175" style="stop-color:#0358E8" />
		<stop offset="0.9541" style="stop-color:#0DBDB3" />
	</linearGradient>
	<path style="fill:url(#SVGID_00000054950415410305922100000005551721194883872186_);" d="M49.4,44.7l5.6-2.2
	c1.1-0.4,2.3,0.4,2.3,1.6v8.3c0,1.5-1.8,2.3-2.9,1.2l-5.6-6C48,46.6,48.3,45.1,49.4,44.7z" />
</svg>